<?xml version="1.0" encoding="UTF-8"?>
<!DOCTYPE svg PUBLIC "-//W3C//DTD SVG 1.1//EN" "http://www.w3.org/Graphics/SVG/1.1/DTD/svg11.dtd">
<svg width="160mm" height="90mm" viewBox="0 0 16000 9000" version="1.1" xmlns="http://www.w3.org/2000/svg" stroke-width="28.222" stroke-linejoin="round" xml:space="preserve">
 <path fill="rgb(255,255,255)" stroke="none" d="M 7988,9006 L -5,9006 -5,0 15980,0 15980,9006 7988,9006 Z"/>
 <path fill="none" stroke="rgb(179,179,179)" stroke-linejoin="round" d="M 6964,7192 L 2775,7192 2775,1470 11152,1470 11152,7192 6964,7192 Z"/>
 <path fill="none" stroke="rgb(179,179,179)" stroke-linejoin="round" d="M 2775,1469 L 2775,7191"/>
 <path fill="none" stroke="rgb(179,179,179)" stroke-linejoin="round" d="M 3705,1469 L 3705,7191"/>
 <path fill="none" stroke="rgb(179,179,179)" stroke-linejoin="round" d="M 4636,1469 L 4636,7191"/>
 <path fill="none" stroke="rgb(179,179,179)" stroke-linejoin="round" d="M 5567,1469 L 5567,7191"/>
 <path fill="none" stroke="rgb(179,179,179)" stroke-linejoin="round" d="M 6498,1469 L 6498,7191"/>
 <path fill="none" stroke="rgb(179,179,179)" stroke-linejoin="round" d="M 7429,1469 L 7429,7191"/>
 <path fill="none" stroke="rgb(179,179,179)" stroke-linejoin="round" d="M 8359,1469 L 8359,7191"/>
 <path fill="none" stroke="rgb(179,179,179)" stroke-linejoin="round" d="M 9290,1469 L 9290,7191"/>
 <path fill="none" stroke="rgb(179,179,179)" stroke-linejoin="round" d="M 10221,1469 L 10221,7191"/>
 <path fill="none" stroke="rgb(179,179,179)" stroke-linejoin="round" d="M 11152,1469 L 11152,7191"/>
 <path fill="none" stroke="rgb(179,179,179)" stroke-linejoin="round" d="M 11152,7191 L 2775,7191"/>
 <path fill="none" stroke="rgb(179,179,179)" stroke-linejoin="round" d="M 11152,6475 L 2775,6475"/>
 <path fill="none" stroke="rgb(179,179,179)" stroke-linejoin="round" d="M 11152,5760 L 2775,5760"/>
 <path fill="none" stroke="rgb(179,179,179)" stroke-linejoin="round" d="M 11152,5044 L 2775,5044"/>
 <path fill="none" stroke="rgb(179,179,179)" stroke-linejoin="round" d="M 11152,4330 L 2775,4330"/>
 <path fill="none" stroke="rgb(179,179,179)" stroke-linejoin="round" d="M 11152,3615 L 2775,3615"/>
 <path fill="none" stroke="rgb(179,179,179)" stroke-linejoin="round" d="M 11152,2899 L 2775,2899"/>
 <path fill="none" stroke="rgb(179,179,179)" stroke-linejoin="round" d="M 11152,2184 L 2775,2184"/>
 <path fill="none" stroke="rgb(179,179,179)" stroke-linejoin="round" d="M 11152,1469 L 2775,1469"/>
 <path fill="none" stroke="rgb(179,179,179)" stroke-linejoin="round" d="M 2775,7341 L 2775,7191"/>
 <path fill="none" stroke="rgb(179,179,179)" stroke-linejoin="round" d="M 2775,7341 L 2775,7191"/>
 <path fill="none" stroke="rgb(179,179,179)" stroke-linejoin="round" d="M 3705,7341 L 3705,7191"/>
 <path fill="none" stroke="rgb(179,179,179)" stroke-linejoin="round" d="M 3705,7341 L 3705,7191"/>
 <path fill="none" stroke="rgb(179,179,179)" stroke-linejoin="round" d="M 4636,7341 L 4636,7191"/>
 <path fill="none" stroke="rgb(179,179,179)" stroke-linejoin="round" d="M 4636,7341 L 4636,7191"/>
 <path fill="none" stroke="rgb(179,179,179)" stroke-linejoin="round" d="M 5567,7341 L 5567,7191"/>
 <path fill="none" stroke="rgb(179,179,179)" stroke-linejoin="round" d="M 5567,7341 L 5567,7191"/>
 <path fill="none" stroke="rgb(179,179,179)" stroke-linejoin="round" d="M 6498,7341 L 6498,7191"/>
 <path fill="none" stroke="rgb(179,179,179)" stroke-linejoin="round" d="M 6498,7341 L 6498,7191"/>
 <path fill="none" stroke="rgb(179,179,179)" stroke-linejoin="round" d="M 7429,7341 L 7429,7191"/>
 <path fill="none" stroke="rgb(179,179,179)" stroke-linejoin="round" d="M 7429,7341 L 7429,7191"/>
 <path fill="none" stroke="rgb(179,179,179)" stroke-linejoin="round" d="M 8359,7341 L 8359,7191"/>
 <path fill="none" stroke="rgb(179,179,179)" stroke-linejoin="round" d="M 8359,7341 L 8359,7191"/>
 <path fill="none" stroke="rgb(179,179,179)" stroke-linejoin="round" d="M 9290,7341 L 9290,7191"/>
 <path fill="none" stroke="rgb(179,179,179)" stroke-linejoin="round" d="M 9290,7341 L 9290,7191"/>
 <path fill="none" stroke="rgb(179,179,179)" stroke-linejoin="round" d="M 10221,7341 L 10221,7191"/>
 <path fill="none" stroke="rgb(179,179,179)" stroke-linejoin="round" d="M 10221,7341 L 10221,7191"/>
 <path fill="none" stroke="rgb(179,179,179)" stroke-linejoin="round" d="M 11152,7341 L 11152,7191"/>
 <path fill="none" stroke="rgb(179,179,179)" stroke-linejoin="round" d="M 11152,7341 L 11152,7191"/>
 <path fill="none" stroke="rgb(179,179,179)" stroke-linejoin="round" d="M 2775,7191 L 11152,7191"/>
 <path fill="none" stroke="rgb(179,179,179)" stroke-linejoin="round" d="M 2625,7191 L 2775,7191"/>
 <path fill="none" stroke="rgb(179,179,179)" stroke-linejoin="round" d="M 2625,7191 L 2775,7191"/>
 <path fill="none" stroke="rgb(179,179,179)" stroke-linejoin="round" d="M 2625,6475 L 2775,6475"/>
 <path fill="none" stroke="rgb(179,179,179)" stroke-linejoin="round" d="M 2625,6475 L 2775,6475"/>
 <path fill="none" stroke="rgb(179,179,179)" stroke-linejoin="round" d="M 2625,5760 L 2775,5760"/>
 <path fill="none" stroke="rgb(179,179,179)" stroke-linejoin="round" d="M 2625,5760 L 2775,5760"/>
 <path fill="none" stroke="rgb(179,179,179)" stroke-linejoin="round" d="M 2625,5044 L 2775,5044"/>
 <path fill="none" stroke="rgb(179,179,179)" stroke-linejoin="round" d="M 2625,5044 L 2775,5044"/>
 <path fill="none" stroke="rgb(179,179,179)" stroke-linejoin="round" d="M 2625,4330 L 2775,4330"/>
 <path fill="none" stroke="rgb(179,179,179)" stroke-linejoin="round" d="M 2625,4330 L 2775,4330"/>
 <path fill="none" stroke="rgb(179,179,179)" stroke-linejoin="round" d="M 2625,3615 L 2775,3615"/>
 <path fill="none" stroke="rgb(179,179,179)" stroke-linejoin="round" d="M 2625,3615 L 2775,3615"/>
 <path fill="none" stroke="rgb(179,179,179)" stroke-linejoin="round" d="M 2625,2899 L 2775,2899"/>
 <path fill="none" stroke="rgb(179,179,179)" stroke-linejoin="round" d="M 2625,2899 L 2775,2899"/>
 <path fill="none" stroke="rgb(179,179,179)" stroke-linejoin="round" d="M 2625,2184 L 2775,2184"/>
 <path fill="none" stroke="rgb(179,179,179)" stroke-linejoin="round" d="M 2625,2184 L 2775,2184"/>
 <path fill="none" stroke="rgb(179,179,179)" stroke-linejoin="round" d="M 2625,1469 L 2775,1469"/>
 <path fill="none" stroke="rgb(179,179,179)" stroke-linejoin="round" d="M 2625,1469 L 2775,1469"/>
 <path fill="none" stroke="rgb(179,179,179)" stroke-linejoin="round" d="M 2775,7191 L 2775,1469"/>
 <path fill="none" stroke="rgb(255,66,14)" stroke-width="80" stroke-linejoin="round" d="M 3938,6332 L 6033,5016 8126,3649 10221,2248"/>
 <path fill="rgb(255,66,14)" stroke="none" d="M 3813,6332 L 3938,6457 4063,6332 3938,6207 3813,6332 Z"/>
 <path fill="none" stroke="rgb(255,66,14)" stroke-linejoin="round" d="M 3813,6332 L 3938,6457 4063,6332 3938,6207 3813,6332 Z"/>
 <path fill="rgb(255,66,14)" stroke="none" d="M 5908,5016 L 6033,5141 6158,5016 6033,4891 5908,5016 Z"/>
 <path fill="none" stroke="rgb(255,66,14)" stroke-linejoin="round" d="M 5908,5016 L 6033,5141 6158,5016 6033,4891 5908,5016 Z"/>
 <path fill="rgb(255,66,14)" stroke="none" d="M 8001,3649 L 8126,3774 8251,3649 8126,3524 8001,3649 Z"/>
 <path fill="none" stroke="rgb(255,66,14)" stroke-linejoin="round" d="M 8001,3649 L 8126,3774 8251,3649 8126,3524 8001,3649 Z"/>
 <path fill="rgb(255,66,14)" stroke="none" d="M 10096,2248 L 10221,2373 10346,2248 10221,2123 10096,2248 Z"/>
 <path fill="none" stroke="rgb(255,66,14)" stroke-linejoin="round" d="M 10096,2248 L 10221,2373 10346,2248 10221,2123 10096,2248 Z"/>
 <path fill="none" stroke="rgb(255,211,32)" stroke-width="80" stroke-linejoin="round" d="M 3729,6369 L 5614,5093 7499,3740 9383,2396"/>
 <path fill="rgb(255,211,32)" stroke="none" d="M 3604,6244 L 3729,6494 3854,6244 3604,6244 Z"/>
 <path fill="none" stroke="rgb(255,211,32)" stroke-linejoin="round" d="M 3604,6244 L 3729,6494 3854,6244 3604,6244 Z"/>
 <path fill="rgb(255,211,32)" stroke="none" d="M 5489,4968 L 5614,5218 5739,4968 5489,4968 Z"/>
 <path fill="none" stroke="rgb(255,211,32)" stroke-linejoin="round" d="M 5489,4968 L 5614,5218 5739,4968 5489,4968 Z"/>
 <path fill="rgb(255,211,32)" stroke="none" d="M 7374,3615 L 7499,3865 7624,3615 7374,3615 Z"/>
 <path fill="none" stroke="rgb(255,211,32)" stroke-linejoin="round" d="M 7374,3615 L 7499,3865 7624,3615 7374,3615 Z"/>
 <path fill="rgb(255,211,32)" stroke="none" d="M 9258,2271 L 9383,2521 9508,2271 9258,2271 Z"/>
 <path fill="none" stroke="rgb(255,211,32)" stroke-linejoin="round" d="M 9258,2271 L 9383,2521 9508,2271 9258,2271 Z"/>
 <path fill="none" stroke="rgb(0,69,134)" stroke-width="80" stroke-linejoin="round" d="M 3519,6406 L 5195,5170 6870,3832 8545,2544"/>
 <path fill="rgb(0,69,134)" stroke="none" d="M 3394,6281 L 3394,6531 3644,6531 3644,6281 3394,6281 Z"/>
 <path fill="none" stroke="rgb(0,69,134)" stroke-linejoin="round" d="M 3394,6281 L 3394,6531 3644,6531 3644,6281 3394,6281 Z"/>
 <path fill="rgb(0,69,134)" stroke="none" d="M 5070,5045 L 5070,5295 5320,5295 5320,5045 5070,5045 Z"/>
 <path fill="none" stroke="rgb(0,69,134)" stroke-linejoin="round" d="M 5070,5045 L 5070,5295 5320,5295 5320,5045 5070,5045 Z"/>
 <path fill="rgb(0,69,134)" stroke="none" d="M 6745,3707 L 6745,3957 6995,3957 6995,3707 6745,3707 Z"/>
 <path fill="none" stroke="rgb(0,69,134)" stroke-linejoin="round" d="M 6745,3707 L 6745,3957 6995,3957 6995,3707 6745,3707 Z"/>
 <path fill="rgb(0,69,134)" stroke="none" d="M 8420,2419 L 8420,2669 8670,2669 8670,2419 8420,2419 Z"/>
 <path fill="none" stroke="rgb(0,69,134)" stroke-linejoin="round" d="M 8420,2419 L 8420,2669 8670,2669 8670,2419 8420,2419 Z"/>
 <path fill="none" stroke="rgb(0,0,0)" stroke-linejoin="round" d="M 3729,6391 L 9383,2409"/>
 <path fill="none" stroke="rgb(0,0,0)" stroke-linejoin="round" d="M 3519,6427 L 8545,2550"/>
 <text class="TextShape"><tspan class="TextParagraph" font-family="Liberation Sans, sans-serif" font-size="353px" font-weight="400"><tspan class="TextPosition" x="2576" y="7765"><tspan fill="rgb(0,0,0)" stroke="none">10</tspan></tspan></tspan></text>
 <text class="TextShape"><tspan class="TextParagraph" font-family="Liberation Sans, sans-serif" font-size="353px" font-weight="400"><tspan class="TextPosition" x="3506" y="7765"><tspan fill="rgb(0,0,0)" stroke="none">20</tspan></tspan></tspan></text>
 <text class="TextShape"><tspan class="TextParagraph" font-family="Liberation Sans, sans-serif" font-size="353px" font-weight="400"><tspan class="TextPosition" x="4437" y="7765"><tspan fill="rgb(0,0,0)" stroke="none">30</tspan></tspan></tspan></text>
 <text class="TextShape"><tspan class="TextParagraph" font-family="Liberation Sans, sans-serif" font-size="353px" font-weight="400"><tspan class="TextPosition" x="5368" y="7765"><tspan fill="rgb(0,0,0)" stroke="none">40</tspan></tspan></tspan></text>
 <text class="TextShape"><tspan class="TextParagraph" font-family="Liberation Sans, sans-serif" font-size="353px" font-weight="400"><tspan class="TextPosition" x="6299" y="7765"><tspan fill="rgb(0,0,0)" stroke="none">50</tspan></tspan></tspan></text>
 <text class="TextShape"><tspan class="TextParagraph" font-family="Liberation Sans, sans-serif" font-size="353px" font-weight="400"><tspan class="TextPosition" x="7230" y="7765"><tspan fill="rgb(0,0,0)" stroke="none">60</tspan></tspan></tspan></text>
 <text class="TextShape"><tspan class="TextParagraph" font-family="Liberation Sans, sans-serif" font-size="353px" font-weight="400"><tspan class="TextPosition" x="8161" y="7765"><tspan fill="rgb(0,0,0)" stroke="none">70</tspan></tspan></tspan></text>
 <text class="TextShape"><tspan class="TextParagraph" font-family="Liberation Sans, sans-serif" font-size="353px" font-weight="400"><tspan class="TextPosition" x="9092" y="7765"><tspan fill="rgb(0,0,0)" stroke="none">80</tspan></tspan></tspan></text>
 <text class="TextShape"><tspan class="TextParagraph" font-family="Liberation Sans, sans-serif" font-size="353px" font-weight="400"><tspan class="TextPosition" x="10023" y="7765"><tspan fill="rgb(0,0,0)" stroke="none">90</tspan></tspan></tspan></text>
 <text class="TextShape"><tspan class="TextParagraph" font-family="Liberation Sans, sans-serif" font-size="353px" font-weight="400"><tspan class="TextPosition" x="10854" y="7765"><tspan fill="rgb(0,0,0)" stroke="none">100</tspan></tspan></tspan></text>
 <text class="TextShape"><tspan class="TextParagraph" font-family="Liberation Sans, sans-serif" font-size="353px" font-weight="400"><tspan class="TextPosition" x="1330" y="7317"><tspan fill="rgb(0,0,0)" stroke="none">100000</tspan></tspan></tspan></text>
 <text class="TextShape"><tspan class="TextParagraph" font-family="Liberation Sans, sans-serif" font-size="353px" font-weight="400"><tspan class="TextPosition" x="1330" y="6601"><tspan fill="rgb(0,0,0)" stroke="none">150000</tspan></tspan></tspan></text>
 <text class="TextShape"><tspan class="TextParagraph" font-family="Liberation Sans, sans-serif" font-size="353px" font-weight="400"><tspan class="TextPosition" x="1330" y="5886"><tspan fill="rgb(0,0,0)" stroke="none">200000</tspan></tspan></tspan></text>
 <text class="TextShape"><tspan class="TextParagraph" font-family="Liberation Sans, sans-serif" font-size="353px" font-weight="400"><tspan class="TextPosition" x="1330" y="5170"><tspan fill="rgb(0,0,0)" stroke="none">250000</tspan></tspan></tspan></text>
 <text class="TextShape"><tspan class="TextParagraph" font-family="Liberation Sans, sans-serif" font-size="353px" font-weight="400"><tspan class="TextPosition" x="1330" y="4455"><tspan fill="rgb(0,0,0)" stroke="none">300000</tspan></tspan></tspan></text>
 <text class="TextShape"><tspan class="TextParagraph" font-family="Liberation Sans, sans-serif" font-size="353px" font-weight="400"><tspan class="TextPosition" x="1330" y="3740"><tspan fill="rgb(0,0,0)" stroke="none">350000</tspan></tspan></tspan></text>
 <text class="TextShape"><tspan class="TextParagraph" font-family="Liberation Sans, sans-serif" font-size="353px" font-weight="400"><tspan class="TextPosition" x="1330" y="3024"><tspan fill="rgb(0,0,0)" stroke="none">400000</tspan></tspan></tspan></text>
 <text class="TextShape"><tspan class="TextParagraph" font-family="Liberation Sans, sans-serif" font-size="353px" font-weight="400"><tspan class="TextPosition" x="1330" y="2309"><tspan fill="rgb(0,0,0)" stroke="none">450000</tspan></tspan></tspan></text>
 <text class="TextShape"><tspan class="TextParagraph" font-family="Liberation Sans, sans-serif" font-size="353px" font-weight="400"><tspan class="TextPosition" x="1330" y="1594"><tspan fill="rgb(0,0,0)" stroke="none">500000</tspan></tspan></tspan></text>
 <path fill="rgb(255,255,255)" stroke="none" d="M 8276,6881 L 5635,6881 5635,5832 10917,5832 10917,6881 8276,6881 Z"/>
 <text class="TextShape"><tspan class="TextParagraph" font-family="Liberation Sans, sans-serif" font-size="353px" font-weight="400"><tspan class="TextPosition" x="5885" y="6282"><tspan fill="rgb(0,0,0)" stroke="none">f(x) = 4582.222 x + 63112.500</tspan></tspan></tspan><tspan class="TextParagraph" font-family="Liberation Sans, sans-serif" font-size="353px" font-weight="400"><tspan class="TextPosition" x="5885" y="6681"><tspan fill="rgb(0,0,0)" stroke="none">R² = 1.000</tspan></tspan></tspan></text>
 <text class="TextShape"><tspan class="TextParagraph" font-family="Liberation Sans, sans-serif" font-size="459px" font-weight="400"><tspan class="TextPosition" x="3593" y="851"><tspan fill="rgb(0,0,0)" stroke="none">Conveyor dryer investment cost (1996 USD)</tspan></tspan></tspan></text>
 <path fill="none" stroke="rgb(0,69,134)" stroke-width="80" stroke-linejoin="round" d="M 11888,3502 L 12688,3502"/>
 <path fill="rgb(0,69,134)" stroke="none" d="M 12182,3397 L 12182,3608 12393,3608 12393,3397 12182,3397 Z"/>
 <path fill="none" stroke="rgb(0,69,134)" stroke-linejoin="round" d="M 12182,3397 L 12182,3608 12393,3608 12393,3397 12182,3397 Z"/>
 <path fill="none" stroke="rgb(0,0,0)" stroke-linejoin="round" d="M 11888,4002 L 12688,4002"/>
 <path fill="none" stroke="rgb(255,211,32)" stroke-width="80" stroke-linejoin="round" d="M 11888,4502 L 12688,4502"/>
 <path fill="rgb(255,211,32)" stroke="none" d="M 12182,4397 L 12288,4607 12393,4397 12182,4397 Z"/>
 <path fill="none" stroke="rgb(255,211,32)" stroke-linejoin="round" d="M 12182,4397 L 12288,4607 12393,4397 12182,4397 Z"/>
 <path fill="none" stroke="rgb(0,0,0)" stroke-linejoin="round" d="M 11888,5001 L 12688,5001"/>
 <path fill="none" stroke="rgb(255,66,14)" stroke-width="80" stroke-linejoin="round" d="M 11888,5501 L 12688,5501"/>
 <path fill="rgb(255,66,14)" stroke="none" d="M 12182,5501 L 12288,5607 12393,5501 12288,5396 12182,5501 Z"/>
 <path fill="none" stroke="rgb(255,66,14)" stroke-linejoin="round" d="M 12182,5501 L 12288,5607 12393,5501 12288,5396 12182,5501 Z"/>
 <text class="TextShape"><tspan class="TextParagraph" font-family="Liberation Sans, sans-serif" font-size="353px" font-weight="400"><tspan class="TextPosition" x="12788" y="3627"><tspan fill="rgb(0,0,0)" stroke="none">wide2.4m</tspan></tspan></tspan></text>
 <text class="TextShape"><tspan class="TextParagraph" font-family="Liberation Sans, sans-serif" font-size="353px" font-weight="400"><tspan class="TextPosition" x="12788" y="4127"><tspan fill="rgb(0,0,0)" stroke="none">Linear (wide2.4m)</tspan></tspan></tspan></text>
 <text class="TextShape"><tspan class="TextParagraph" font-family="Liberation Sans, sans-serif" font-size="353px" font-weight="400"><tspan class="TextPosition" x="12788" y="4626"><tspan fill="rgb(0,0,0)" stroke="none">averge</tspan></tspan></tspan></text>
 <text class="TextShape"><tspan class="TextParagraph" font-family="Liberation Sans, sans-serif" font-size="353px" font-weight="400"><tspan class="TextPosition" x="12788" y="5126"><tspan fill="rgb(0,0,0)" stroke="none">Linear (averge)</tspan></tspan></tspan></text>
 <text class="TextShape"><tspan class="TextParagraph" font-family="Liberation Sans, sans-serif" font-size="353px" font-weight="400"><tspan class="TextPosition" x="12788" y="5626"><tspan fill="rgb(0,0,0)" stroke="none">wide3m</tspan></tspan></tspan></text>
 <text class="TextShape"><tspan class="TextParagraph" font-family="Liberation Sans, sans-serif" font-size="318px" font-weight="400"><tspan class="TextPosition" x="5681" y="8416"><tspan fill="rgb(0,0,0)" stroke="none">Area (m2)</tspan></tspan></tspan></text>
 <text class="TextShape" transform="translate(840,5389) rotate(-90) translate(-840,-5389)"><tspan class="TextParagraph" font-family="Liberation Sans, sans-serif" font-size="318px" font-weight="400"><tspan class="TextPosition" x="840" y="5389"><tspan fill="rgb(0,0,0)" stroke="none">(1996 USD)</tspan></tspan></tspan></text>
</svg>