<?xml version="1.0" encoding="UTF-8"?>
<!DOCTYPE svg PUBLIC "-//W3C//DTD SVG 1.1//EN" "http://www.w3.org/Graphics/SVG/1.1/DTD/svg11.dtd">
<svg width="160mm" height="90mm" viewBox="0 0 16000 9000" version="1.1" xmlns="http://www.w3.org/2000/svg" stroke-width="28.222" stroke-linejoin="round" xml:space="preserve">
 <path fill="rgb(255,255,255)" stroke="none" d="M 7992,8991 L -12,8991 -12,0 15996,0 15996,8991 7992,8991 Z"/>
 <path fill="none" stroke="rgb(179,179,179)" stroke-linejoin="round" d="M 9022,7178 L 2570,7178 2570,1468 15475,1468 15475,7178 9022,7178 Z"/>
 <path fill="none" stroke="rgb(179,179,179)" stroke-linejoin="round" d="M 2570,1466 L 2570,7177"/>
 <path fill="none" stroke="rgb(179,179,179)" stroke-linejoin="round" d="M 3860,1466 L 3860,7177"/>
 <path fill="none" stroke="rgb(179,179,179)" stroke-linejoin="round" d="M 5151,1466 L 5151,7177"/>
 <path fill="none" stroke="rgb(179,179,179)" stroke-linejoin="round" d="M 6441,1466 L 6441,7177"/>
 <path fill="none" stroke="rgb(179,179,179)" stroke-linejoin="round" d="M 7732,1466 L 7732,7177"/>
 <path fill="none" stroke="rgb(179,179,179)" stroke-linejoin="round" d="M 9022,1466 L 9022,7177"/>
 <path fill="none" stroke="rgb(179,179,179)" stroke-linejoin="round" d="M 10312,1466 L 10312,7177"/>
 <path fill="none" stroke="rgb(179,179,179)" stroke-linejoin="round" d="M 11603,1466 L 11603,7177"/>
 <path fill="none" stroke="rgb(179,179,179)" stroke-linejoin="round" d="M 12893,1466 L 12893,7177"/>
 <path fill="none" stroke="rgb(179,179,179)" stroke-linejoin="round" d="M 14184,1466 L 14184,7177"/>
 <path fill="none" stroke="rgb(179,179,179)" stroke-linejoin="round" d="M 15475,1466 L 15475,7177"/>
 <path fill="none" stroke="rgb(179,179,179)" stroke-linejoin="round" d="M 15475,7177 L 2570,7177"/>
 <path fill="none" stroke="rgb(179,179,179)" stroke-linejoin="round" d="M 15475,6225 L 2570,6225"/>
 <path fill="none" stroke="rgb(179,179,179)" stroke-linejoin="round" d="M 15475,5273 L 2570,5273"/>
 <path fill="none" stroke="rgb(179,179,179)" stroke-linejoin="round" d="M 15475,4322 L 2570,4322"/>
 <path fill="none" stroke="rgb(179,179,179)" stroke-linejoin="round" d="M 15475,3370 L 2570,3370"/>
 <path fill="none" stroke="rgb(179,179,179)" stroke-linejoin="round" d="M 15475,2418 L 2570,2418"/>
 <path fill="none" stroke="rgb(179,179,179)" stroke-linejoin="round" d="M 15475,1466 L 2570,1466"/>
 <path fill="none" stroke="rgb(179,179,179)" stroke-linejoin="round" d="M 2570,7327 L 2570,7177"/>
 <path fill="none" stroke="rgb(179,179,179)" stroke-linejoin="round" d="M 2570,7327 L 2570,7177"/>
 <path fill="none" stroke="rgb(179,179,179)" stroke-linejoin="round" d="M 3860,7327 L 3860,7177"/>
 <path fill="none" stroke="rgb(179,179,179)" stroke-linejoin="round" d="M 3860,7327 L 3860,7177"/>
 <path fill="none" stroke="rgb(179,179,179)" stroke-linejoin="round" d="M 5151,7327 L 5151,7177"/>
 <path fill="none" stroke="rgb(179,179,179)" stroke-linejoin="round" d="M 5151,7327 L 5151,7177"/>
 <path fill="none" stroke="rgb(179,179,179)" stroke-linejoin="round" d="M 6441,7327 L 6441,7177"/>
 <path fill="none" stroke="rgb(179,179,179)" stroke-linejoin="round" d="M 6441,7327 L 6441,7177"/>
 <path fill="none" stroke="rgb(179,179,179)" stroke-linejoin="round" d="M 7732,7327 L 7732,7177"/>
 <path fill="none" stroke="rgb(179,179,179)" stroke-linejoin="round" d="M 7732,7327 L 7732,7177"/>
 <path fill="none" stroke="rgb(179,179,179)" stroke-linejoin="round" d="M 9022,7327 L 9022,7177"/>
 <path fill="none" stroke="rgb(179,179,179)" stroke-linejoin="round" d="M 9022,7327 L 9022,7177"/>
 <path fill="none" stroke="rgb(179,179,179)" stroke-linejoin="round" d="M 10312,7327 L 10312,7177"/>
 <path fill="none" stroke="rgb(179,179,179)" stroke-linejoin="round" d="M 10312,7327 L 10312,7177"/>
 <path fill="none" stroke="rgb(179,179,179)" stroke-linejoin="round" d="M 11603,7327 L 11603,7177"/>
 <path fill="none" stroke="rgb(179,179,179)" stroke-linejoin="round" d="M 11603,7327 L 11603,7177"/>
 <path fill="none" stroke="rgb(179,179,179)" stroke-linejoin="round" d="M 12893,7327 L 12893,7177"/>
 <path fill="none" stroke="rgb(179,179,179)" stroke-linejoin="round" d="M 12893,7327 L 12893,7177"/>
 <path fill="none" stroke="rgb(179,179,179)" stroke-linejoin="round" d="M 14184,7327 L 14184,7177"/>
 <path fill="none" stroke="rgb(179,179,179)" stroke-linejoin="round" d="M 14184,7327 L 14184,7177"/>
 <path fill="none" stroke="rgb(179,179,179)" stroke-linejoin="round" d="M 15475,7327 L 15475,7177"/>
 <path fill="none" stroke="rgb(179,179,179)" stroke-linejoin="round" d="M 15475,7327 L 15475,7177"/>
 <path fill="none" stroke="rgb(179,179,179)" stroke-linejoin="round" d="M 2570,7177 L 15475,7177"/>
 <path fill="none" stroke="rgb(179,179,179)" stroke-linejoin="round" d="M 2420,7177 L 2570,7177"/>
 <path fill="none" stroke="rgb(179,179,179)" stroke-linejoin="round" d="M 2420,7177 L 2570,7177"/>
 <path fill="none" stroke="rgb(179,179,179)" stroke-linejoin="round" d="M 2420,6225 L 2570,6225"/>
 <path fill="none" stroke="rgb(179,179,179)" stroke-linejoin="round" d="M 2420,6225 L 2570,6225"/>
 <path fill="none" stroke="rgb(179,179,179)" stroke-linejoin="round" d="M 2420,5273 L 2570,5273"/>
 <path fill="none" stroke="rgb(179,179,179)" stroke-linejoin="round" d="M 2420,5273 L 2570,5273"/>
 <path fill="none" stroke="rgb(179,179,179)" stroke-linejoin="round" d="M 2420,4322 L 2570,4322"/>
 <path fill="none" stroke="rgb(179,179,179)" stroke-linejoin="round" d="M 2420,4322 L 2570,4322"/>
 <path fill="none" stroke="rgb(179,179,179)" stroke-linejoin="round" d="M 2420,3370 L 2570,3370"/>
 <path fill="none" stroke="rgb(179,179,179)" stroke-linejoin="round" d="M 2420,3370 L 2570,3370"/>
 <path fill="none" stroke="rgb(179,179,179)" stroke-linejoin="round" d="M 2420,2418 L 2570,2418"/>
 <path fill="none" stroke="rgb(179,179,179)" stroke-linejoin="round" d="M 2420,2418 L 2570,2418"/>
 <path fill="none" stroke="rgb(179,179,179)" stroke-linejoin="round" d="M 2420,1466 L 2570,1466"/>
 <path fill="none" stroke="rgb(179,179,179)" stroke-linejoin="round" d="M 2420,1466 L 2570,1466"/>
 <path fill="none" stroke="rgb(179,179,179)" stroke-linejoin="round" d="M 2570,7177 L 2570,1466"/>
 <path fill="none" stroke="rgb(0,69,134)" stroke-width="80" stroke-linejoin="round" d="M 3860,6233 L 5151,5615 6441,5082 7732,4588 9022,4132 10312,3694 11603,3285 12893,2885 14184,2494"/>
 <path fill="rgb(0,69,134)" stroke="none" d="M 3735,6108 L 3735,6358 3985,6358 3985,6108 3735,6108 Z"/>
 <path fill="none" stroke="rgb(0,69,134)" stroke-linejoin="round" d="M 3735,6108 L 3735,6358 3985,6358 3985,6108 3735,6108 Z"/>
 <path fill="rgb(0,69,134)" stroke="none" d="M 5026,5490 L 5026,5740 5276,5740 5276,5490 5026,5490 Z"/>
 <path fill="none" stroke="rgb(0,69,134)" stroke-linejoin="round" d="M 5026,5490 L 5026,5740 5276,5740 5276,5490 5026,5490 Z"/>
 <path fill="rgb(0,69,134)" stroke="none" d="M 6316,4957 L 6316,5207 6566,5207 6566,4957 6316,4957 Z"/>
 <path fill="none" stroke="rgb(0,69,134)" stroke-linejoin="round" d="M 6316,4957 L 6316,5207 6566,5207 6566,4957 6316,4957 Z"/>
 <path fill="rgb(0,69,134)" stroke="none" d="M 7607,4464 L 7607,4713 7857,4713 7857,4464 7607,4464 Z"/>
 <path fill="none" stroke="rgb(0,69,134)" stroke-linejoin="round" d="M 7607,4464 L 7607,4713 7857,4713 7857,4464 7607,4464 Z"/>
 <path fill="rgb(0,69,134)" stroke="none" d="M 8897,4007 L 8897,4257 9147,4257 9147,4007 8897,4007 Z"/>
 <path fill="none" stroke="rgb(0,69,134)" stroke-linejoin="round" d="M 8897,4007 L 8897,4257 9147,4257 9147,4007 8897,4007 Z"/>
 <path fill="rgb(0,69,134)" stroke="none" d="M 10187,3569 L 10187,3819 10437,3819 10437,3569 10187,3569 Z"/>
 <path fill="none" stroke="rgb(0,69,134)" stroke-linejoin="round" d="M 10187,3569 L 10187,3819 10437,3819 10437,3569 10187,3569 Z"/>
 <path fill="rgb(0,69,134)" stroke="none" d="M 11478,3160 L 11478,3410 11728,3410 11728,3160 11478,3160 Z"/>
 <path fill="none" stroke="rgb(0,69,134)" stroke-linejoin="round" d="M 11478,3160 L 11478,3410 11728,3410 11728,3160 11478,3160 Z"/>
 <path fill="rgb(0,69,134)" stroke="none" d="M 12768,2760 L 12768,3010 13018,3010 13018,2760 12768,2760 Z"/>
 <path fill="none" stroke="rgb(0,69,134)" stroke-linejoin="round" d="M 12768,2760 L 12768,3010 13018,3010 13018,2760 12768,2760 Z"/>
 <path fill="rgb(0,69,134)" stroke="none" d="M 14059,2369 L 14059,2619 14309,2619 14309,2369 14059,2369 Z"/>
 <path fill="none" stroke="rgb(0,69,134)" stroke-linejoin="round" d="M 14059,2369 L 14059,2619 14309,2619 14309,2369 14059,2369 Z"/>
 <path fill="none" stroke="rgb(0,69,134)" stroke-linejoin="round" d="M 3860,6202 L 3991,6144 4121,6086 4252,6028 4383,5971 4514,5914 4644,5857 4775,5800 4906,5744 5036,5688 5167,5632 5298,5577 5428,5522 5559,5467 5690,5412 5821,5358 5951,5304 6082,5251 6213,5198 6343,5145 6474,5092 6605,5040 6735,4987 6866,4936 6997,4884 7127,4833 7258,4782 7389,4732 7520,4681 7650,4631 7781,4582 7912,4532 8041,4484 8172,4436 8303,4387 8433,4339 8564,4291 8695,4243 8825,4196 8956,4149 9087,4103 9218,4056 9348,4010 9479,3964 9610,3919 9740,3874 9871,3829 10002,3784 10132,3740 10263,3696 10394,3652 10524,3609 10655,3566 10786,3523 10917,3481 11047,3439 11178,3397 11309,3355 11439,3314 11570,3273 11701,3232 11831,3192 11962,3152 12093,3112 12223,3073 12354,3034 12485,2995 12616,2956 12746,2918 12877,2880 13008,2842 13138,2805 13269,2768 13400,2731 13530,2695 13661,2659 13792,2623 13923,2587 14053,2552 14184,2517"/>
 <text class="TextShape"><tspan class="TextParagraph" font-family="Liberation Sans, sans-serif" font-size="353px" font-weight="400"><tspan class="TextPosition" x="2470" y="7751"><tspan fill="rgb(0,0,0)" stroke="none">0</tspan></tspan></tspan></text>
 <text class="TextShape"><tspan class="TextParagraph" font-family="Liberation Sans, sans-serif" font-size="353px" font-weight="400"><tspan class="TextPosition" x="3760" y="7751"><tspan fill="rgb(0,0,0)" stroke="none">5</tspan></tspan></tspan></text>
 <text class="TextShape"><tspan class="TextParagraph" font-family="Liberation Sans, sans-serif" font-size="353px" font-weight="400"><tspan class="TextPosition" x="4952" y="7751"><tspan fill="rgb(0,0,0)" stroke="none">10</tspan></tspan></tspan></text>
 <text class="TextShape"><tspan class="TextParagraph" font-family="Liberation Sans, sans-serif" font-size="353px" font-weight="400"><tspan class="TextPosition" x="6242" y="7751"><tspan fill="rgb(0,0,0)" stroke="none">15</tspan></tspan></tspan></text>
 <text class="TextShape"><tspan class="TextParagraph" font-family="Liberation Sans, sans-serif" font-size="353px" font-weight="400"><tspan class="TextPosition" x="7533" y="7751"><tspan fill="rgb(0,0,0)" stroke="none">20</tspan></tspan></tspan></text>
 <text class="TextShape"><tspan class="TextParagraph" font-family="Liberation Sans, sans-serif" font-size="353px" font-weight="400"><tspan class="TextPosition" x="8824" y="7751"><tspan fill="rgb(0,0,0)" stroke="none">25</tspan></tspan></tspan></text>
 <text class="TextShape"><tspan class="TextParagraph" font-family="Liberation Sans, sans-serif" font-size="353px" font-weight="400"><tspan class="TextPosition" x="10114" y="7751"><tspan fill="rgb(0,0,0)" stroke="none">30</tspan></tspan></tspan></text>
 <text class="TextShape"><tspan class="TextParagraph" font-family="Liberation Sans, sans-serif" font-size="353px" font-weight="400"><tspan class="TextPosition" x="11405" y="7751"><tspan fill="rgb(0,0,0)" stroke="none">35</tspan></tspan></tspan></text>
 <text class="TextShape"><tspan class="TextParagraph" font-family="Liberation Sans, sans-serif" font-size="353px" font-weight="400"><tspan class="TextPosition" x="12695" y="7751"><tspan fill="rgb(0,0,0)" stroke="none">40</tspan></tspan></tspan></text>
 <text class="TextShape"><tspan class="TextParagraph" font-family="Liberation Sans, sans-serif" font-size="353px" font-weight="400"><tspan class="TextPosition" x="13986" y="7751"><tspan fill="rgb(0,0,0)" stroke="none">45</tspan></tspan></tspan></text>
 <text class="TextShape"><tspan class="TextParagraph" font-family="Liberation Sans, sans-serif" font-size="353px" font-weight="400"><tspan class="TextPosition" x="15277" y="7751"><tspan fill="rgb(0,0,0)" stroke="none">50</tspan></tspan></tspan></text>
 <text class="TextShape"><tspan class="TextParagraph" font-family="Liberation Sans, sans-serif" font-size="353px" font-weight="400"><tspan class="TextPosition" x="2121" y="7303"><tspan fill="rgb(0,0,0)" stroke="none">0</tspan></tspan></tspan></text>
 <text class="TextShape"><tspan class="TextParagraph" font-family="Liberation Sans, sans-serif" font-size="353px" font-weight="400"><tspan class="TextPosition" x="1324" y="6351"><tspan fill="rgb(0,0,0)" stroke="none">10000</tspan></tspan></tspan></text>
 <text class="TextShape"><tspan class="TextParagraph" font-family="Liberation Sans, sans-serif" font-size="353px" font-weight="400"><tspan class="TextPosition" x="1324" y="5399"><tspan fill="rgb(0,0,0)" stroke="none">20000</tspan></tspan></tspan></text>
 <text class="TextShape"><tspan class="TextParagraph" font-family="Liberation Sans, sans-serif" font-size="353px" font-weight="400"><tspan class="TextPosition" x="1324" y="4447"><tspan fill="rgb(0,0,0)" stroke="none">30000</tspan></tspan></tspan></text>
 <text class="TextShape"><tspan class="TextParagraph" font-family="Liberation Sans, sans-serif" font-size="353px" font-weight="400"><tspan class="TextPosition" x="1324" y="3495"><tspan fill="rgb(0,0,0)" stroke="none">40000</tspan></tspan></tspan></text>
 <text class="TextShape"><tspan class="TextParagraph" font-family="Liberation Sans, sans-serif" font-size="353px" font-weight="400"><tspan class="TextPosition" x="1324" y="2543"><tspan fill="rgb(0,0,0)" stroke="none">50000</tspan></tspan></tspan></text>
 <text class="TextShape"><tspan class="TextParagraph" font-family="Liberation Sans, sans-serif" font-size="353px" font-weight="400"><tspan class="TextPosition" x="1324" y="1591"><tspan fill="rgb(0,0,0)" stroke="none">60000</tspan></tspan></tspan></text>
 <path fill="rgb(255,255,255)" stroke="none" d="M 6559,2893 L 3021,2893 3021,1844 10096,1844 10096,2893 6559,2893 Z"/>
 <text class="TextShape"><tspan class="TextParagraph" font-family="Liberation Sans, sans-serif" font-size="353px" font-weight="400"><tspan class="TextPosition" x="3271" y="2293"><tspan fill="rgb(0,0,0)" stroke="none">f(x) = − 6.157 x² + 1276.035 x + 4007.619</tspan></tspan></tspan><tspan class="TextParagraph" font-family="Liberation Sans, sans-serif" font-size="353px" font-weight="400"><tspan class="TextPosition" x="3271" y="2692"><tspan fill="rgb(0,0,0)" stroke="none">R² = 1.000</tspan></tspan></tspan></text>
 <text class="TextShape"><tspan class="TextParagraph" font-family="Liberation Sans, sans-serif" font-size="459px" font-weight="400"><tspan class="TextPosition" x="6846" y="850"><tspan fill="rgb(0,0,0)" stroke="none">Vessel cost</tspan></tspan></tspan></text>
 <text class="TextShape"><tspan class="TextParagraph" font-family="Liberation Sans, sans-serif" font-size="318px" font-weight="400"><tspan class="TextPosition" x="7578" y="8401"><tspan fill="rgb(0,0,0)" stroke="none">Volume (m3)</tspan></tspan></tspan></text>
 <text class="TextShape" transform="translate(833,5680) rotate(-90) translate(-833,-5680)"><tspan class="TextParagraph" font-family="Liberation Sans, sans-serif" font-size="318px" font-weight="400"><tspan class="TextPosition" x="833" y="5680"><tspan fill="rgb(0,0,0)" stroke="none">Unit cost (USD)</tspan></tspan></tspan></text>
</svg>